<?xml version="1.0" encoding="UTF-8" standalone="no"?>
<!-- Created with Inkscape (http://www.inkscape.org/) -->

<svg
   width="300"
   height="200"
   viewBox="0 0 79.374999 52.916666"
   version="1.1"
   id="svg5"
   inkscape:version="1.2.1 (9c6d41e410, 2022-07-14)"
   sodipodi:docname="background.svg"
   xmlns:inkscape="http://www.inkscape.org/namespaces/inkscape"
   xmlns:sodipodi="http://sodipodi.sourceforge.net/DTD/sodipodi-0.dtd"
   xmlns="http://www.w3.org/2000/svg"
   xmlns:svg="http://www.w3.org/2000/svg">
  <sodipodi:namedview
     id="namedview7"
     pagecolor="#ffffff"
     bordercolor="#000000"
     borderopacity="0.25"
     inkscape:showpageshadow="2"
     inkscape:pageopacity="0.0"
     inkscape:pagecheckerboard="0"
     inkscape:deskcolor="#d1d1d1"
     inkscape:document-units="px"
     showgrid="false"
     inkscape:zoom="2.1683333"
     inkscape:cx="100.76864"
     inkscape:cy="113.45119"
     inkscape:window-width="1920"
     inkscape:window-height="1017"
     inkscape:window-x="-8"
     inkscape:window-y="101"
     inkscape:window-maximized="1"
     inkscape:current-layer="layer1" />
  <defs
     id="defs2" />
  <g
     inkscape:label="Слой 1"
     inkscape:groupmode="layer"
     id="layer1">
    <path
       id="path428"
       d="m 63.55658,24.813208 q -0.493713,0.285046 -1.083475,0.445233 -0.589765,0.160188 -1.168558,0.168075 -0.618851,0.0095 -1.184107,-0.123468 -0.56154,-0.13087 -1.093211,-0.43783 -0.49821,-0.287642 -0.756351,-0.615144 -0.250132,-0.327833 -0.221866,-0.683312 0.03088,-0.408502 0.436281,-0.848635 0.405406,-0.440133 1.216812,-0.908598 0.841459,-0.485817 1.661327,-0.765976 0.819869,-0.28016 1.701402,-0.351211 0.845195,-0.06724 1.691376,0.113945 0.849898,0.183336 1.652982,0.646997 0.271413,0.1567 0.551947,0.368238 0.280535,0.211538 0.355732,0.279744 l -1.257894,0.726246 -0.141283,-0.08157 q -0.04458,-0.09018 -0.217552,-0.269366 -0.164971,-0.179516 -0.469846,-0.355536 -0.713852,-0.412142 -1.515232,-0.408833 -0.801381,0.0033 -1.604427,0.372499 0.48377,0.05127 0.920007,0.164325 0.444247,0.112724 0.812328,0.325236 0.323464,0.186752 0.512735,0.39517 0.192988,0.210565 0.242037,0.457008 0.05959,0.321928 -0.17524,0.672165 -0.234831,0.350237 -0.865925,0.714599 z m -2.657641,-0.418995 q 0.261226,-0.01773 0.525635,-0.09311 0.272419,-0.07571 0.615871,-0.274004 0.313401,-0.180942 0.432806,-0.34004 0.123697,-0.161577 0.106343,-0.3104 -0.01364,-0.146679 -0.152889,-0.276648 -0.13496,-0.132445 -0.328295,-0.244067 -0.163592,-0.09445 -0.384985,-0.172699 -0.221393,-0.07825 -0.43451,-0.126933 -0.04293,0.02479 -0.145399,0.07965 -0.102464,0.05486 -0.252726,0.141611 -0.528058,0.304875 -0.78228,0.554685 -0.246209,0.249478 -0.274085,0.441591 -0.02898,0.136943 0.0479,0.255693 0.08118,0.116269 0.244774,0.210718 0.122693,0.07084 0.335813,0.119519 0.213119,0.04868 0.446014,0.03443 z M 21.928663,9.132901 Q 21.353307,9.4650826 20.668311,9.642327 19.99257,9.8191874 19.283891,9.8166675 18.511752,9.8061452 17.812779,9.6145022 17.123062,9.4224756 16.465858,9.0430386 15.701932,8.5962584 15.308174,8.2085586 14.913753,7.826203 14.747346,7.5354009 l 1.631827,-0.9421358 0.18041,0.1041595 q 0.123048,0.3803142 0.395512,0.7438031 0.272464,0.3634889 0.719191,0.6214069 0.270613,0.1562385 0.653621,0.2971868 0.392262,0.1405642 0.765445,0.1383848 0.299805,-0.00445 0.531546,-0.05393 0.236037,-0.046996 0.568355,-0.2388598 0.257918,-0.1489091 0.338345,-0.314383 0.08968,-0.1658577 0.04483,-0.3234803 Q 20.508154,7.3391343 20.231299,7.1220194 19.959405,6.9020407 19.693086,6.7482817 19.306496,6.5250837 18.870614,6.3650631 18.443988,6.2046589 18.10327,6.0938547 l -0.189,-0.109119 4.166367,-2.4054528 4.548884,2.6262994 -1.413589,0.8161356 -2.998225,-1.7310265 -1.205271,0.6958632 q 0.143079,0.071152 0.349925,0.1848475 0.216102,0.1133117 0.370739,0.2025912 0.52834,0.3050375 0.821664,0.6118428 0.30258,0.3064216 0.394944,0.6002933 0.118088,0.3831778 -0.114201,0.7702476 -0.227328,0.3842061 -0.906843,0.7765241 z M 7.6845139,30.206379 1.7940127,26.805496 3.5731467,25.778313 5.4339287,26.852636 10.81923,23.743431 8.9584477,22.669108 10.621254,21.709086 q 0.426676,0.246342 0.872535,0.440551 0.45271,0.190254 0.857151,0.257833 0.479225,0.07915 0.907016,0.01008 0.427791,-0.06907 0.862065,-0.292429 l 1.961525,1.132487 -8.4372003,4.87122 1.8193002,1.050374 z m 68.4075691,16.619103 -8.936946,1.769476 -1.864443,-1.076437 9.105537,-1.73603 -3.332474,-1.924005 1.433572,-0.827673 5.083657,2.935051 z M 33.925913,26.949955 q -1.266446,0.731183 -3.008501,0.656003 -1.736517,-0.07198 -3.36506,-1.012222 -0.913979,-0.527686 -1.350141,-1.030617 -0.436163,-0.502932 -0.478916,-0.970756 -0.04361,-0.460933 0.256739,-0.870997 0.305885,-0.406866 0.887938,-0.742915 0.716374,-0.413598 1.626498,-0.523307 0.922061,-0.110203 2.229635,0.164656 l 0.03838,-0.02216 q -0.336333,-0.637323 -0.09217,-1.168456 0.244158,-0.531132 1.011701,-0.974274 1.132126,-0.653633 2.763335,-0.546436 1.631209,0.107196 3.088035,0.948295 1.528837,0.882675 1.734155,1.761941 0.217253,0.878771 -0.876496,1.510247 -0.677996,0.391441 -1.574472,0.486872 -0.896475,0.09543 -2.020794,-0.125324 l -0.03838,0.02216 q 0.48675,0.716781 0.262576,1.325922 -0.224175,0.609141 -1.094057,1.111368 z m 2.112863,-3.861489 q 0.486111,-0.280656 0.447123,-0.635522 -0.03345,-0.351667 -0.570757,-0.661883 -0.199414,-0.115131 -0.467472,-0.203423 -0.262519,-0.08509 -0.542971,-0.121456 -0.269373,-0.02997 -0.553713,0.01267 -0.277943,0.03894 -0.50181,0.168192 -0.377375,0.217878 -0.405653,0.445279 -0.02274,0.230599 0.18717,0.595518 0.07834,0.133861 0.229098,0.353841 0.162689,0.219485 0.404182,0.521396 0.600201,-0.0523 0.986021,-0.147132 0.385822,-0.09483 0.788782,-0.32748 z m -4.337597,2.702595 q 0.460526,-0.265885 0.497771,-0.517651 0.03725,-0.251767 -0.276134,-0.78721 -0.08685,-0.16093 -0.295111,-0.443652 -0.208257,-0.282723 -0.344107,-0.479327 -0.48764,0.0065 -1.0397,0.101369 -0.540126,0.09437 -0.981463,0.349177 -0.665204,0.384056 -0.651862,0.849671 0.02528,0.465121 0.689988,0.848892 0.177257,0.10234 0.473012,0.206622 0.30215,0.100589 0.601791,0.125874 0.346526,0.0302 0.666671,-0.01392 0.320146,-0.04412 0.659144,-0.239841 z M 59.958692,8.2486894 56.675696,6.3532509 57.473433,5.8926772 q 0.690879,0.035661 1.420671,0.048856 0.7326,0.014816 1.216262,-0.00176 0.719227,-0.022862 1.144581,-0.1030557 0.425354,-0.080194 0.700995,-0.239335 Q 62.286711,5.4064156 62.279714,5.1964283 62.278768,4.9861895 61.933338,4.786755 61.674967,4.6375845 61.265284,4.5433457 60.858411,4.4507285 60.422754,4.4201277 l -0.08987,-0.051886 1.073379,-0.6197157 q 0.299923,0.057081 0.788007,0.2227968 0.490893,0.1673371 0.881257,0.3927141 0.786347,0.4539975 0.816524,0.913272 0.03342,0.4574021 -0.663791,0.8599365 -0.45724,0.2639876 -1.068475,0.3866425 -0.608426,0.124277 -1.453425,0.1419251 -0.527961,0.00972 -1.016573,-0.00652 -0.48537,-0.018113 -0.685695,-0.028925 L 60.8829,7.7150976 Z M 48.294805,40.794048 q 0.0034,0.381999 -0.238609,0.748976 -0.242019,0.366976 -0.970775,0.787724 -0.822789,0.475037 -1.820895,0.722178 -0.99132,0.25106 -2.084282,0.208179 -1.063719,-0.04409 -2.103777,-0.336929 -1.025438,-0.293441 -2.12481,-0.928164 -1.255456,-0.724838 -1.930781,-1.377138 -0.668537,-0.648383 -0.949697,-1.13645 l 2.562399,-1.479402 0.264664,0.152804 q 0.176142,0.572208 0.685934,1.210373 0.516578,0.642084 1.188416,1.02997 0.393603,0.227247 0.925588,0.452959 0.539824,0.221185 1.109534,0.260559 0.446993,0.03186 0.870553,-0.04028 0.431397,-0.07667 0.956414,-0.379792 0.509346,-0.294071 0.580022,-0.569958 0.07852,-0.280414 -0.136469,-0.54026 -0.207149,-0.264371 -0.667564,-0.53924 -0.452579,-0.279394 -0.852968,-0.510558 l -0.556472,-0.32128 2.084398,-1.203427 0.576831,0.333033 q 0.529328,0.305608 0.975683,0.518069 0.446354,0.212462 0.872427,0.295585 0.44748,0.08644 0.839696,0.03238 0.400053,-0.05858 0.878054,-0.33455 0.352623,-0.203587 0.408114,-0.415855 0.06333,-0.216792 -0.04881,-0.42631 Q 49.464005,36.773003 49.15135,36.538201 48.838695,36.3034 48.580818,36.154515 47.94291,35.786219 46.937832,35.504532 45.940591,35.21832 44.763606,35.090736 l -0.251091,-0.144968 2.531055,-1.461305 q 0.815063,0.171982 2.007006,0.588701 1.19978,0.412195 2.183786,0.980311 0.956861,0.552444 1.480301,1.08086 0.531276,0.523893 0.678248,0.979729 0.172504,0.542963 -0.104572,1.016376 -0.277076,0.473413 -1.013668,0.898685 -0.971674,0.560996 -2.262151,0.702675 -1.282641,0.137155 -2.349283,-0.234366 l -0.109705,0.06334 q 0.291245,0.231489 0.513504,0.549825 0.222259,0.318336 0.227769,0.683449 z m -4.677917,-31.2985798 -0.608211,-0.351151 -1.200488,0.693102 -1.099575,-0.63484 1.200488,-0.693102 -2.160202,-1.247193 0.975612,-0.5632699 5.077406,-0.5200865 1.171482,0.6763555 -3.023707,1.745738 0.608211,0.351151 z M 42.850118,7.9661813 44.711393,6.8915737 41.552798,7.2171733 Z M 18.320261,47.061073 q -1.609213,0.92908 -3.352406,1.522453 -1.743194,0.593372 -3.420136,0.718224 Q 9.7337083,49.436896 8.0473389,49.059471 6.3695744,48.677078 4.8119991,47.777811 4.2605133,47.459411 3.6970473,47.044662 3.1335814,46.629913 2.9925998,46.478963 l 2.521388,-1.455724 0.2981007,0.172108 q 0.1030988,0.198638 0.3753009,0.51478 0.2796541,0.320446 0.995095,0.733506 0.5812962,0.335611 1.3037372,0.563916 0.7310469,0.223337 1.4949099,0.247012 0.8269425,0.03028 1.6867005,-0.139091 0.868364,-0.174344 1.782761,-0.590402 Q 12.371954,46.39915 11.580669,46.210592 10.805442,46.021368 9.9782141,45.543768 9.3522033,45.18234 8.9504673,44.751664 8.5647903,44.320323 8.4653154,43.835614 8.3544768,43.185357 8.8079711,42.493261 q 0.4695534,-0.692762 1.7345509,-1.423109 2.056695,-1.187433 4.584624,-1.218435 2.543987,-0.03167 4.556166,1.130065 1.035899,0.598077 1.514918,1.242295 0.495076,0.643553 0.430965,1.35179 -0.06189,0.818824 -0.863593,1.677538 -0.801704,0.858714 -2.44534,1.807668 z m -2.372408,-1.926165 q 1.049861,-0.606137 1.542223,-1.096933 0.50842,-0.491462 0.572901,-0.881511 0.05925,-0.283765 -0.10347,-0.516825 -0.162719,-0.23306 -0.475725,-0.413774 -0.290648,-0.167806 -0.679414,-0.253146 -0.372708,-0.08601 -0.90262,-0.06404 -0.506401,0.0256 -1.102933,0.197902 -0.58908,0.176603 -1.20867,0.534323 -0.60238,0.347784 -0.858937,0.676622 -0.247951,0.323868 -0.21316,0.622182 0.02849,0.284741 0.2841,0.541619 0.263061,0.261182 0.680401,0.502134 0.335363,0.193622 0.825006,0.367013 0.498249,0.168424 0.817636,0.233583 0.09466,-0.05465 0.274216,-0.149719 0.195619,-0.09573 0.548441,-0.299432 z"
       style="font-weight:bold;font-size:8.79238px;-inkscape-font-specification:'sans-serif Bold';fill:#63696b;stroke-width:0.0293078;stroke-miterlimit:0.5" />
  </g>
</svg>
