<?xml version="1.0" encoding="UTF-8" standalone="no"?>
<!-- Created with Inkscape (http://www.inkscape.org/) -->

<svg
   width="32"
   height="32"
   viewBox="0 0 8.4666665 8.4666666"
   version="1.1"
   id="svg5"
   inkscape:version="1.2.1 (9c6d41e410, 2022-07-14)"
   sodipodi:docname="logo.svg"
   xmlns:inkscape="http://www.inkscape.org/namespaces/inkscape"
   xmlns:sodipodi="http://sodipodi.sourceforge.net/DTD/sodipodi-0.dtd"
   xmlns="http://www.w3.org/2000/svg"
   xmlns:svg="http://www.w3.org/2000/svg">
  <sodipodi:namedview
     id="namedview7"
     pagecolor="#e42121"
     bordercolor="#000000"
     borderopacity="0.25"
     inkscape:showpageshadow="2"
     inkscape:pageopacity="0"
     inkscape:pagecheckerboard="true"
     inkscape:deskcolor="#d1d1d1"
     inkscape:document-units="px"
     showgrid="false"
     inkscape:zoom="16"
     inkscape:cx="-2.78125"
     inkscape:cy="18.625"
     inkscape:window-width="1920"
     inkscape:window-height="1017"
     inkscape:window-x="-8"
     inkscape:window-y="101"
     inkscape:window-maximized="1"
     inkscape:current-layer="layer9">
    <inkscape:grid
       type="xygrid"
       id="grid134"
       dotted="false"
       snapvisiblegridlinesonly="true"
       visible="true"
       empspacing="8"
       color="#ff0004"
       opacity="0.14901961"
       empcolor="#003ce5"
       empopacity="1"
       enabled="false" />
    <inkscape:grid
       type="axonomgrid"
       id="grid136"
       originx="0.74083332"
       units="px"
       spacingy="0.44979166"
       gridanglex="30"
       gridanglez="30"
       empspacing="3"
       originy="-0.50270833"
       empcolor="#0f00e5"
       empopacity="1"
       color="#e50003"
       opacity="0.30588235" />
  </sodipodi:namedview>
  <defs
     id="defs2" />
  <g
     inkscape:groupmode="layer"
     id="layer6"
     inkscape:label="side right">
    <path
       style="fill:#f7fff7;fill-opacity:1;stroke:#f7fff7;stroke-width:0.1;stroke-miterlimit:0.5;stroke-dasharray:none;stroke-opacity:1"
       d="M 9.6875,12.199665 C 8.621875,11.582033 7.6683269,11.030454 7.5685043,10.973932 L 7.3870085,10.871165 9.5060043,9.6416009 C 10.671452,8.9653407 11.639062,8.412185 11.65625,8.412366 c 0.04313,4.542e-4 4.234375,2.419288 4.234375,2.443726 0,0.01814 -4.235855,2.475469 -4.256466,2.469285 -0.005,-0.0015 -0.881034,-0.508081 -1.946659,-1.125712 z"
       id="path72044"
       transform="scale(0.26458333)" />
    <path
       style="fill:#f7fff7;fill-opacity:1;stroke:#f7fff7;stroke-width:0.1;stroke-miterlimit:0.5;stroke-dasharray:none;stroke-opacity:1"
       d="m 13.930737,14.647231 c -1.155281,-0.667062 -2.108611,-1.220938 -2.118509,-1.230836 -0.01663,-0.01663 4.206458,-2.470904 4.250017,-2.469927 0.02272,5.09e-4 4.208802,2.408703 4.240027,2.43923 0.01882,0.0184 -4.151773,2.446391 -4.236246,2.466212 -0.01913,0.0045 -0.980007,-0.537618 -2.135289,-1.204679 z"
       id="path72046"
       transform="scale(0.26458333)" />
    <path
       style="fill:#f7fff7;fill-opacity:1;stroke:#f7fff7;stroke-width:0.1;stroke-miterlimit:0.5;stroke-dasharray:none;stroke-opacity:1"
       d="m 18.5,12.182085 c -1.082813,-0.624927 -2.043929,-1.179071 -2.135814,-1.231431 l -0.167063,-0.0952 2.131238,-1.230133 2.131239,-1.2301334 0.1452,0.087653 c 0.07986,0.048209 1.024106,0.5971703 2.098325,1.219914 1.074219,0.6227434 1.963367,1.1416554 1.975885,1.1531384 0.0171,0.01569 -2.665693,1.586424 -4.067382,2.381391 l -0.142878,0.08103 z"
       id="path72048"
       transform="scale(0.26458333)" />
    <path
       style="fill:#f7fff7;fill-opacity:1;stroke:#f7fff7;stroke-width:0.1;stroke-miterlimit:0.5;stroke-dasharray:none;stroke-opacity:1"
       d="M 14.637496,9.958142 13.243743,9.1536378 14.61768,8.3580689 c 0.755666,-0.4375629 1.392711,-0.7999825 1.415655,-0.805377 0.02294,-0.00539 0.668838,0.3514214 1.435319,0.792924 1.21576,0.7002927 1.386439,0.8076225 1.337474,0.841055 -0.131598,0.089853 -2.727241,1.5788181 -2.749919,1.5774651 -0.01373,-8.19e-4 -0.652148,-0.363517 -1.418713,-0.805994 z"
       id="path72050"
       transform="scale(0.26458333)" />
    <path
       style="fill:#f7fff7;fill-opacity:1;stroke:#f7fff7;stroke-width:0.1;stroke-miterlimit:0.5;stroke-dasharray:none;stroke-opacity:1"
       d="M 10.96875,7.8462197 C 10.607812,7.6360566 9.6585937,7.0877497 8.859375,6.62776 8.0601562,6.1677702 7.3957843,5.7814747 7.3829929,5.7693254 7.3592502,5.7467746 11.575266,3.296875 11.637816,3.296875 c 0.04215,0 4.252888,2.4427451 4.252612,2.4670374 -2.18e-4,0.019849 -4.147151,2.4283895 -4.218553,2.450142 -0.02578,0.00785 -0.342188,-0.1576716 -0.703125,-0.3678347 z"
       id="path72052"
       transform="scale(0.26458333)" />
    <path
       style="fill:#f7fff7;fill-opacity:1;stroke:#f7fff7;stroke-width:0.1;stroke-miterlimit:0.5;stroke-dasharray:none;stroke-opacity:1"
       d="M 13.915282,4.4447925 C 12.751499,3.7704691 11.798765,3.2112481 11.798094,3.2020791 c -0.002,-0.027049 4.24757,-2.47198425 4.272703,-2.45825714 0.434347,0.23722635 4.226078,2.44346154 4.226078,2.45896164 0,0.023878 -4.202664,2.4694486 -4.24219,2.4685714 -0.01289,-2.813e-4 -0.975621,-0.5522394 -2.139403,-1.2265625 z"
       id="path72054"
       transform="scale(0.26458333)" />
    <path
       style="fill:#f7fff7;fill-opacity:1;stroke:#f7fff7;stroke-width:0.1;stroke-miterlimit:0.5;stroke-dasharray:none;stroke-opacity:1"
       d="m 18.347495,7.0165081 c -1.149503,-0.6683974 -2.100847,-1.226797 -2.114099,-1.240888 -0.03569,-0.037951 4.210905,-2.4888179 4.271839,-2.4654353 0.02733,0.010487 0.99165,0.5627636 2.142939,1.2272823 1.892423,1.0922985 2.087667,1.212301 2.035039,1.2507968 -0.07406,0.054171 -4.216553,2.4465576 -4.233271,2.4448117 -0.0068,-7.156e-4 -0.952944,-0.54817 -2.102447,-1.2165675 z"
       id="path72056"
       transform="scale(0.26458333)" />
    <path
       style="fill:#f7fff7;fill-opacity:1;stroke:#f7fff7;stroke-width:0.1;stroke-miterlimit:0.5;stroke-dasharray:none;stroke-opacity:1"
       d="M 22.734375,9.564369 C 21.574219,8.8897264 20.63182,8.3250345 20.640155,8.309498 c 0.0083,-0.015536 0.968538,-0.5789491 2.133783,-1.2520281 l 2.118627,-1.2237802 2.123218,1.2237802 c 1.167769,0.673079 2.123583,1.2311483 2.12403,1.240154 5.94e-4,0.011994 -3.31311,1.9362201 -4.202313,2.4402301 l -0.09375,0.05314 z"
       id="path72058"
       transform="scale(0.26458333)" />
    <path
       style="fill:#f2f5ea;fill-opacity:1;stroke:#f2f5ea;stroke-width:0.1;stroke-miterlimit:0.5;stroke-dasharray:none;stroke-opacity:1"
       d="m 24.960749,13.354956 0.008,-2.477091 0.5,-0.287056 c 0.275,-0.157881 1.23125,-0.7094804 2.125,-1.2257763 l 1.625,-0.93872 0.008,2.4569653 c 0.0044,1.351331 -0.0026,2.467433 -0.01563,2.480227 -0.013,0.01279 -0.965816,0.567094 -2.117378,1.231779 -1.151563,0.664685 -2.104382,1.214873 -2.117376,1.222641 -0.013,0.0078 -0.02003,-1.100569 -0.01563,-2.462969 z"
       id="path72060"
       transform="scale(0.26458333)" />
    <path
       style="fill:#f2f5ea;fill-opacity:1;stroke:#f2f5ea;stroke-width:0.1;stroke-miterlimit:0.5;stroke-dasharray:none;stroke-opacity:1"
       d="m 20.546875,15.898578 v -2.466005 l 2.121292,-1.224099 c 1.166711,-0.673255 2.129992,-1.224099 2.140625,-1.224099 0.01063,0 0.01916,1.107422 0.01894,2.460937 l -3.87e-4,2.460938 -2.112036,1.21875 c -1.161621,0.670312 -2.124727,1.223437 -2.140237,1.229167 -0.01662,0.0061 -0.0282,-1.002487 -0.0282,-2.455589 z"
       id="path72062"
       transform="scale(0.26458333)" />
    <path
       style="fill:#f2f5ea;fill-opacity:1;stroke:#f2f5ea;stroke-width:0.1;stroke-miterlimit:0.5;stroke-dasharray:none;stroke-opacity:1"
       d="m 16.109375,18.458353 v -2.463522 l 2.146589,-1.238847 c 1.180624,-0.681366 2.151533,-1.233903 2.157577,-1.22786 0.006,0.006 0.0011,1.120762 -0.01094,2.477152 l -0.02193,2.466164 -0.330958,0.191161 c -2.937146,1.69648 -3.915291,2.259274 -3.926656,2.259274 -0.0075,0 -0.01368,-1.108585 -0.01368,-2.463522 z"
       id="path72064"
       transform="scale(0.26458333)" />
    <path
       style="fill:#f2f5ea;fill-opacity:1;stroke:#f2f5ea;stroke-width:0.1;stroke-miterlimit:0.5;stroke-dasharray:none;stroke-opacity:1"
       d="m 16.109635,23.554687 2.6e-4,-2.460937 2.111479,-1.21875 c 1.161313,-0.670313 2.124477,-1.223438 2.140365,-1.229167 0.01752,-0.0063 0.02889,0.959124 0.02889,2.454801 v 2.465218 l -2.121519,1.224887 c -1.166836,0.673687 -2.130117,1.224886 -2.140625,1.224886 -0.01051,0 -0.01899,-1.107422 -0.01885,-2.460938 z"
       id="path72066"
       transform="scale(0.26458333)" />
    <path
       style="fill:#f2f5ea;fill-opacity:1;stroke:#f2f5ea;stroke-width:0.1;stroke-miterlimit:0.5;stroke-dasharray:none;stroke-opacity:1"
       d="m 20.515787,21.306532 c 8.9e-5,-1.199843 0.0091,-2.315759 0.01992,-2.479815 l 0.01976,-0.298283 2.107623,-1.217342 c 1.159194,-0.669538 2.120543,-1.22203 2.136333,-1.227759 0.01729,-0.0063 0.02871,0.970135 0.02871,2.45499 v 2.465405 l -2.132813,1.229503 c -1.173046,0.676227 -2.143359,1.235202 -2.15625,1.242168 -0.01289,0.007 -0.02336,-0.969025 -0.02328,-2.168867 z"
       id="path72068"
       transform="scale(0.26458333)" />
    <path
       style="fill:#d6dbd2;fill-opacity:1;stroke:#d6dbd2;stroke-width:0.1;stroke-miterlimit:0.5;stroke-dasharray:none;stroke-opacity:1"
       d="m 24.960655,17.594746 0.0081,-1.613776 1.403779,-0.810798 c 0.772078,-0.445938 1.408406,-0.810797 1.414062,-0.810797 0.0057,0 0.01007,0.734766 0.0098,1.632812 L 27.79593,17.625 26.404165,18.40625 c -0.765471,0.429687 -1.405232,0.78598 -1.421692,0.791761 -0.01888,0.0066 -0.02694,-0.584898 -0.02183,-1.603265 z"
       id="path72070"
       transform="scale(0.26458333)" />
    <path
       style="fill:#f2f5ea;fill-opacity:1;stroke:#f2f5ea;stroke-width:0.1;stroke-miterlimit:0.5;stroke-dasharray:none;stroke-opacity:1"
       d="m 24.953125,23.552039 v -2.463585 l 2.120818,-1.223915 c 1.166449,-0.673153 2.129731,-1.223914 2.140625,-1.223914 0.01089,0 0.01934,1.107422 0.01878,2.460937 l -10e-4,2.460938 -2.120415,1.226562 c -1.166227,0.67461 -2.129044,1.226563 -2.139593,1.226563 -0.01055,0 -0.01918,-1.108613 -0.01918,-2.463586 z"
       id="path72072"
       transform="scale(0.26458333)" />
    <path
       style="fill:#f2f5ea;fill-opacity:1;stroke:#f2f5ea;stroke-width:0.1;stroke-miterlimit:0.5;stroke-dasharray:none;stroke-opacity:1"
       d="m 20.515625,26.132777 v -2.481696 l 2.148437,-1.239917 2.148438,-1.239916 0.008,2.459498 c 0.0044,1.352724 -0.0026,2.470026 -0.01563,2.482893 -0.013,0.01287 -0.937691,0.552856 -2.054878,1.199974 -1.117188,0.647118 -2.076953,1.204541 -2.132813,1.238719 l -0.101562,0.06214 z"
       id="path72074"
       transform="scale(0.26458333)" />
    <path
       style="fill:#f2f5ea;fill-opacity:1;stroke:#f2f5ea;stroke-width:0.1;stroke-miterlimit:0.5;stroke-dasharray:none;stroke-opacity:1"
       d="m 16.110608,28.666667 0.0012,-2.479167 1.925797,-1.109375 c 1.059188,-0.610156 2.021915,-1.163183 2.139392,-1.228949 l 0.213595,-0.119574 -9.74e-4,2.478949 -9.74e-4,2.478949 -2.10687,1.21824 c -1.158778,0.670031 -2.121621,1.223156 -2.139651,1.229166 -0.0227,0.0076 -0.0324,-0.751629 -0.03155,-2.468239 z"
       id="path72076"
       transform="scale(0.26458333)" />
    <path
       style="fill:#f2f5ea;fill-opacity:1;stroke:#f2f5ea;stroke-width:0.1;stroke-miterlimit:0.5;stroke-dasharray:none;stroke-opacity:1"
       d="m 13.828125,29.911144 -2.109375,-1.224919 -0.008,-2.478592 c -0.0046,-1.422006 0.0037,-2.474125 0.01956,-2.468113 0.01516,0.0058 0.978345,0.558917 2.140416,1.22923 l 2.112857,1.21875 3.97e-4,2.476562 c 2.19e-4,1.36211 -0.01015,2.475536 -0.02304,2.474282 -0.01289,-0.0013 -0.972656,-0.553495 -2.132812,-1.2272 z"
       id="path72078"
       transform="scale(0.26458333)" />
    <path
       style="fill:#f2f5ea;fill-opacity:1;stroke:#f2f5ea;stroke-width:0.1;stroke-miterlimit:0.5;stroke-dasharray:none;stroke-opacity:1"
       d="m 13.820312,24.787018 -2.117187,-1.224245 v -2.461074 c 0,-1.353591 0.0087,-2.461074 0.01942,-2.461074 0.01068,0 0.973965,0.551386 2.140625,1.225301 l 2.121201,1.225302 v 2.462199 c 0,1.354209 -0.01055,2.461217 -0.02344,2.460017 -0.01289,-0.0012 -0.976171,-0.553091 -2.140625,-1.226426 z"
       id="path72080"
       transform="scale(0.26458333)" />
    <path
       style="fill:#f2f5ea;fill-opacity:1;stroke:#f2f5ea;stroke-width:0.1;stroke-miterlimit:0.5;stroke-dasharray:none;stroke-opacity:1"
       d="m 13.837261,19.69564 -2.131489,-1.22689 0.003,-1.703125 c 0.0016,-0.936719 0.01159,-2.044397 0.02211,-2.461507 l 0.01914,-0.758382 2.09375,1.207349 c 1.151562,0.664041 2.104383,1.21704 2.117378,1.228885 0.013,0.01184 0.02003,1.128317 0.01563,2.481048 l -0.008,2.459511 z"
       id="path72082"
       transform="scale(0.26458333)" />
    <path
       style="fill:#f2f5ea;fill-opacity:1;stroke:#f2f5ea;stroke-width:0.1;stroke-miterlimit:0.5;stroke-dasharray:none;stroke-opacity:1;paint-order:normal"
       d="M 9.4153207,17.142703 7.2681414,15.90625 7.2668832,13.430566 7.265625,10.954882 7.6328125,11.16806 C 7.8347656,11.285307 8.7875,11.835037 9.75,12.389682 c 0.9625,0.554645 1.767664,1.024923 1.789253,1.045063 0.03099,0.02891 0.03757,0.552996 0.03125,2.490515 l -0.008,2.453896 z"
       id="path72084"
       transform="scale(0.26458333)" />
    <path
       style="fill:#f2f5ea;fill-opacity:1;stroke:#f2f5ea;stroke-width:0.1;stroke-miterlimit:0.5;stroke-dasharray:none;stroke-opacity:1"
       d="M 9.4140625,22.241906 7.265625,21.002335 v -2.465449 c 0,-1.971826 0.00789,-2.462418 0.039432,-2.450317 0.058799,0.02256 4.222331,2.428667 4.249822,2.45597 0.013,0.01291 0.02003,1.129448 0.01563,2.481203 l -0.008,2.457735 z"
       id="path72086"
       transform="scale(0.26458333)" />
    <path
       style="fill:#f2f5ea;fill-opacity:1;stroke:#f2f5ea;stroke-width:0.1;stroke-miterlimit:0.5;stroke-dasharray:none;stroke-opacity:1"
       d="M 5,14.590201 2.875,13.363305 2.867,10.89139 2.859,8.4194743 2.929501,8.4568213 c 0.2321243,0.1229655 4.1400387,2.3853407 4.1722543,2.4154077 0.030993,0.02893 0.037569,0.553063 0.03125,2.490751 l -0.008,2.454117 z"
       id="path72088"
       transform="scale(0.26458333)" />
    <path
       style="fill:#f2f5ea;fill-opacity:1;stroke:#f2f5ea;stroke-width:0.1;stroke-miterlimit:0.5;stroke-dasharray:none;stroke-opacity:1"
       d="M 3.5396451,20.554932 1.4230401,19.34375 1.4224576,16.867187 c -3.205e-4,-1.362109 0.0061,-2.476562 0.014259,-2.476562 0.019038,0 4.1804212,2.405508 4.2119118,2.434716 0.012996,0.01205 0.020027,1.128658 0.015625,2.481344 l -0.008,2.459429 z"
       id="path72090"
       transform="scale(0.26458333)" />
    <path
       style="fill:#f2f5ea;fill-opacity:1;stroke:#f2f5ea;stroke-width:0.1;stroke-miterlimit:0.5;stroke-dasharray:none;stroke-opacity:1"
       d="M 4.9779972,24.787427 2.8622444,23.5625 2.8608097,21.944213 c -0.00136,-1.53186 0.00149,-1.616714 0.053253,-1.588835 0.030078,0.0162 0.6710283,0.382318 1.4243338,0.813599 0.7533054,0.431281 1.3845529,0.784148 1.4027721,0.784148 0.027791,0 0.9640357,-0.522912 1.2978941,-0.724901 l 0.1015625,-0.06145 v 2.424424 c 0,1.333433 -0.010547,2.423688 -0.023437,2.422789 -0.012891,-9e-4 -0.9755263,-0.552852 -2.1391903,-1.226563 z"
       id="path72092"
       transform="scale(0.26458333)" />
    <path
       style="fill:#f2f5ea;fill-opacity:1;stroke:#f2f5ea;stroke-width:0.1;stroke-miterlimit:0.5;stroke-dasharray:none;stroke-opacity:1"
       d="M 9.4346483,27.367139 7.3067966,26.13045 7.2847183,23.663072 c -0.012143,-1.357059 -0.01668,-2.472777 -0.010083,-2.479374 0.0066,-0.0066 0.9775817,0.545235 2.1577425,1.226296 l 2.1457472,1.238292 v 2.480545 c 0,1.364299 -0.0035,2.479296 -0.0078,2.477771 -0.0043,-0.0015 -0.965345,-0.559283 -2.1356641,-1.239463 z"
       id="path72094"
       transform="scale(0.26458333)" />
    <path
       style="fill:#f7fff7;fill-opacity:1;stroke:#f7fff7;stroke-width:0.1;stroke-miterlimit:0.5;stroke-dasharray:none;stroke-opacity:1"
       d="M 5.0900628,9.5580966 C 3.9093594,8.875681 2.9383667,8.3123782 2.9323011,8.3063126 2.9178441,8.2918556 7.1908857,5.8235926 7.2178932,5.8308 c 0.018148,0.00484 4.2980028,2.4674974 4.3131018,2.481785 0.008,0.00753 -4.2423986,2.475683 -4.2746876,2.482281 -0.01109,0.0023 -0.946114,-0.531566 -2.1662446,-1.2367694 z"
       id="path73653"
       transform="scale(0.26458333)" />
    <path
       style="fill:#f7fff7;fill-opacity:1;stroke:#f7fff7;stroke-width:0.1;stroke-miterlimit:0.5;stroke-dasharray:none;stroke-opacity:1"
       d="M 3.65625,15.507899 C 2.5046875,14.840433 1.5448829,14.283771 1.5233509,14.270872 c -0.041089,-0.02462 1.2544302,-0.800551 1.297413,-0.777071 0.3860132,0.210869 4.2259902,2.442479 4.2257158,2.455783 -2.188e-4,0.01054 -0.1443581,0.10259 -0.3203125,0.204553 -0.1759544,0.101962 -0.4675735,0.271325 -0.6480422,0.376361 L 5.75,16.721473 Z"
       id="path73655"
       transform="scale(0.26458333)" />
    <path
       style="fill:#d6dbd2;fill-opacity:1;stroke:#d6dbd2;stroke-width:0.1;stroke-miterlimit:0.5;stroke-dasharray:none;stroke-opacity:1"
       d="m 24.953242,20.149537 1.17e-4,-0.774537 0.64832,-0.363266 c 0.356577,-0.199796 1.015652,-0.569397 1.464611,-0.821335 l 0.81629,-0.45807 0.640679,0.384517 0.640679,0.384516 -0.456969,0.263089 c -0.251333,0.144699 -1.167125,0.673166 -2.035094,1.174372 -0.867969,0.501206 -1.609766,0.927926 -1.648438,0.948267 l -0.07031,0.03698 z"
       id="path74418"
       transform="scale(0.26458333)" />
    <path
       style="fill:#d6dbd2;fill-opacity:1;stroke:#d6dbd2;stroke-width:0.1;stroke-miterlimit:0.5;stroke-dasharray:none;stroke-opacity:1"
       d="m 5.828125,19.302815 v -2.467908 l 0.6328125,-0.36709 c 0.3480469,-0.201899 0.6433594,-0.373005 0.65625,-0.380235 0.012891,-0.0072 0.023437,1.097333 0.023437,2.454586 v 2.467731 L 6.585937,21.329242 c -0.3050781,0.175638 -0.6003906,0.346824 -0.65625,0.380411 l -0.1015625,0.06107 z"
       id="path74420"
       transform="scale(0.26458333)" />
    <path
       style="fill:#d6dbd2;fill-opacity:1;stroke:#d6dbd2;stroke-width:0.1;stroke-miterlimit:0.5;stroke-dasharray:none;stroke-opacity:1"
       d="M 12.444689,8.6957205 C 12.087706,8.4884991 11.799425,8.3154407 11.804064,8.3111462 c 0.0046,-0.00429 0.887342,-0.5172375 1.961561,-1.1398731 1.074219,-0.6226356 2.012891,-1.1668323 2.085937,-1.2093259 l 0.132813,-0.077261 v 0.7624061 0.7624061 l -1.426421,0.8265008 c -0.784532,0.4545755 -1.434923,0.8287478 -1.445313,0.8314943 -0.01039,0.00275 -0.310968,-0.1645515 -0.667952,-0.371773 z"
       id="path74422"
       transform="scale(0.26458333)" />
    <path
       style="fill:#d6dbd2;fill-opacity:1;stroke:#d6dbd2;stroke-width:0.1;stroke-miterlimit:0.5;stroke-dasharray:none;stroke-opacity:1"
       d="M 17.555068,8.2386782 16.110135,7.40625 16.109755,6.6484375 c -2.09e-4,-0.4167969 0.0063,-0.7578125 0.01452,-0.7578125 0.05334,0 4.170591,2.420677 4.15064,2.4403053 -0.02531,0.024905 -1.053746,0.626429 -1.196792,0.6999969 -0.07355,0.037827 -0.162711,-0.00855 -1.523057,-0.792249 z"
       id="path74424"
       transform="scale(0.26458333)" />
    <path
       id="path67969"
       style="fill:none;fill-opacity:0.772549;stroke:#383d42;stroke-width:0.02645833;stroke-miterlimit:0.5;stroke-dasharray:none;stroke-opacity:1"
       d="M 7.3752603,4.6698958 7.7522916,4.8947916 M 6.5881249,5.1138997 7.3752603,4.6715494 V 3.7703124 M 4.2465624,8.2748436 7.7508299,6.2441666 7.7522916,4.8947916 4.2465624,6.9188541 1.9076458,5.5693951 M 1.5213541,5.7918945 1.9076458,5.5694791 m 0.00264,1.349375 L 1.905,2.8839583 5.4173437,0.84666666 M 3.0797437,7.588784 3.083708,3.5454166 6.5881249,1.5213541 M 1.5213541,4.445 1.9076458,4.2201041 M 0.3558646,3.7703125 0.7408333,3.5454167 m 0,0 3.5057291,2.0240624 3.5057292,-2.0240625 V 2.1960416 M 0.3558646,3.7703125 V 5.1263021 L 1.5213504,5.794375 V 4.445 Z m 0.3849687,1.5875 v 0.8863541 l 3.5057291,2.030677 V 4.2201041 M 0.7408333,2.1960417 v 1.349375 M 5.0270833,2.4209375 4.2465624,1.9711458 V 1.5213541 M 3.4660416,2.4228369 4.2465624,1.9711458 M 3.07975,0.84666666 6.5881249,2.8839583 V 6.9188541 M 1.905,1.5213541 5.4173437,3.5454166 5.4107315,7.6004771 M 0.74083332,2.1960416 4.2465624,0.17197916 7.7522916,2.1960416 4.2465624,4.2201041 Z"
       sodipodi:nodetypes="ccccccccccccccccccccccccccccccccccccccccccccccccccccc" />
  </g>
  <g
     inkscape:groupmode="layer"
     id="layer7"
     inkscape:label="up"
     style="fill:#63696b;fill-opacity:1;stroke:none">
    <g
       aria-label="1"
       transform="matrix(0.8660254,0.5,-1,0.57735027,0,0)"
       id="text79681"
       style="font-weight:bold;font-size:1.23858px;-inkscape-font-specification:'sans-serif Bold';stroke:none;stroke-width:0.00412861;stroke-miterlimit:0.5;fill:#63696b;fill-opacity:1">
      <path
         d="M 3.6310525,1.4092067 H 3.0299057 V 1.2519651 H 3.2198052 V 0.77600692 H 3.0299057 V 0.6290465 q 0.043544,0 0.083459,-0.004838 0.039915,-0.005443 0.066525,-0.0181433 0.031448,-0.0151194 0.047173,-0.0393104 0.015724,-0.024191 0.018143,-0.0604775 h 0.2001806 v 0.745688 h 0.1856661 z"
         id="path82274"
         style="fill:#63696b;fill-opacity:1;stroke:none" />
    </g>
    <g
       aria-label="3"
       transform="matrix(0.8660254,0.5,-1,0.57735027,0,0)"
       id="text81442"
       style="font-weight:bold;font-size:1.24246px;-inkscape-font-specification:'sans-serif Bold';stroke:none;stroke-width:0.00414155;stroke-miterlimit:0.5;fill:#63696b;fill-opacity:1">
      <path
         d="m 5.0002881,-1.3765013 q 0.029727,0.02548 0.04732,0.059454 0.017593,0.033974 0.017593,0.090394 0,0.0637 -0.02548,0.1189073 -0.024873,0.055207 -0.077047,0.094641 -0.05096,0.0382202 -0.1201206,0.0588469 -0.068554,0.0200201 -0.1668343,0.0200201 -0.1122339,0 -0.192921,-0.0175934 -0.08008,-0.0175934 -0.130434,-0.0394335 V -1.189647 h 0.02366 q 0.052174,0.031547 0.1243673,0.0546 0.0728,0.023054 0.1328607,0.023054 0.035187,0 0.076441,-0.00546 0.041253,-0.00607 0.069767,-0.02548 0.022447,-0.015167 0.035794,-0.0364 0.013347,-0.02184 0.013347,-0.062487 0,-0.039434 -0.0182,-0.060667 -0.0182,-0.02184 -0.047927,-0.03094 -0.029727,-0.00971 -0.071587,-0.010313 -0.04186,-0.00121 -0.077654,-0.00121 h -0.049747 v -0.1613742 h 0.051567 q 0.04732,0 0.08372,-0.00303 0.0364,-0.00303 0.06188,-0.013953 0.026694,-0.011527 0.04004,-0.030334 0.013347,-0.019413 0.013347,-0.05642 0,-0.0273 -0.013953,-0.04368 -0.013953,-0.016987 -0.035187,-0.026693 -0.02366,-0.01092 -0.055814,-0.01456 -0.032153,-0.00364 -0.055207,-0.00364 -0.057027,0 -0.1237606,0.02002 -0.066734,0.019413 -0.1292207,0.05642 H 4.3784514 V -1.818157 q 0.049747,-0.02002 0.1352874,-0.03822 0.08554,-0.018807 0.1735076,-0.018807 0.08554,0 0.1498474,0.015167 0.064307,0.01456 0.1061673,0.039434 0.049747,0.029727 0.074014,0.072194 0.024267,0.042467 0.024267,0.099494 0,0.075227 -0.046714,0.1346807 -0.046714,0.058847 -0.123154,0.075227 v 0.00849 q 0.03094,0.00425 0.06552,0.016987 0.03458,0.01274 0.063094,0.037007 z"
         id="path82271"
         style="fill:#63696b;fill-opacity:1;stroke:none" />
    </g>
  </g>
  <g
     inkscape:groupmode="layer"
     id="layer8"
     inkscape:label="front"
     style="fill:#63696b;fill-opacity:1;stroke:none">
    <g
       aria-label="5"
       transform="skewY(30)"
       id="text81447"
       style="font-weight:bold;font-size:1.22131px;-inkscape-font-specification:'sans-serif Bold';stroke:none;stroke-width:0.00407102;stroke-miterlimit:0.5;fill:#63696b;fill-opacity:1">
      <path
         d="m 1.2432009,4.4154118 q 0,0.069176 -0.026239,0.1288101 -0.025643,0.059038 -0.075139,0.1013783 Q 1.0869591,4.6909222 1.015398,4.7129869 0.9444332,4.7344552 0.85319275,4.7344552 0.74644739,4.7338589 0.67250089,4.7171613 0.59915073,4.70106 0.55263599,4.6807844 V 4.4845876 h 0.0250464 q 0.0542672,0.032202 0.11688318,0.053671 0.062616,0.021468 0.12463564,0.021468 0.0375696,0 0.0811026,-0.00835 0.0441294,-0.00895 0.0697721,-0.031606 0.0202756,-0.018487 0.0304135,-0.03757 0.010734,-0.019083 0.010734,-0.059038 0,-0.03101 -0.0143122,-0.053075 -0.0137159,-0.022661 -0.0357806,-0.036377 -0.0322025,-0.019679 -0.0775246,-0.025643 -0.0453221,-0.00656 -0.0822953,-0.00656 -0.0536708,0 -0.1031673,0.00954 -0.0489001,0.00895 -0.0858734,0.01789 H 0.58603118 V 3.8280142 H 1.2175582 V 3.9979719 H 0.80131093 v 0.1449113 q 0.0184866,-0.00119 0.0465147,-0.00179 0.0286245,-0.00119 0.0500928,-0.00119 0.0733502,0 0.13059904,0.014312 0.057845,0.013716 0.099589,0.038762 0.054267,0.032799 0.084681,0.087066 0.030413,0.053671 0.030413,0.1353698 z"
         id="path82268"
         style="fill:#63696b;fill-opacity:1;stroke:none" />
    </g>
    <g
       aria-label="2"
       transform="skewY(30)"
       id="text81451"
       style="font-weight:bold;font-size:1.16447px;-inkscape-font-specification:'sans-serif Bold';stroke:none;stroke-width:0.00388157;stroke-miterlimit:0.5;fill:#63696b;fill-opacity:1">
      <path
         d="M 3.9320824,5.6068225 H 3.267402 V 5.4669496 q 0.076191,-0.055153 0.1523818,-0.1171293 0.07676,-0.061976 0.1228152,-0.1068947 0.068799,-0.066525 0.097797,-0.1159921 0.028998,-0.049467 0.028998,-0.097797 0,-0.057996 -0.037527,-0.089268 -0.036958,-0.031841 -0.1068947,-0.031841 -0.05231,0 -0.1103063,0.021606 -0.057427,0.021606 -0.1068947,0.055153 H 3.289577 V 4.7965834 q 0.04037,-0.017626 0.1188351,-0.035253 0.079034,-0.017626 0.1580677,-0.017626 0.1592048,0 0.2427874,0.067094 0.083583,0.066525 0.083583,0.1887715 0,0.080171 -0.04037,0.1523818 -0.039801,0.072211 -0.1222466,0.1489703 -0.051741,0.047762 -0.1040517,0.088131 -0.05231,0.039801 -0.074485,0.055722 h 0.380386 z"
         id="path82265"
         style="fill:#63696b;fill-opacity:1;stroke:none" />
    </g>
  </g>
  <g
     inkscape:groupmode="layer"
     id="layer9"
     inkscape:label="right"
     style="fill:#63696b;fill-opacity:1;stroke:none">
    <g
       aria-label="9"
       transform="skewY(-30)"
       id="text81472"
       style="font-weight:bold;font-size:1.21903px;-inkscape-font-specification:'sans-serif Bold';stroke:none;stroke-width:0.00406343;stroke-miterlimit:0.5;fill:#63696b;fill-opacity:1">
      <path
         d="m 5.2468329,7.3154624 q 0,0.1113079 -0.028571,0.2071399 -0.028571,0.095832 -0.086904,0.1613071 -0.063094,0.070832 -0.1565454,0.1065461 -0.093451,0.035119 -0.217854,0.035119 -0.044047,0 -0.095237,-0.00536 -0.05119,-0.00536 -0.067261,-0.00952 V 7.6362911 h 0.023809 q 0.017857,0.00833 0.050594,0.017857 0.033333,0.00952 0.090475,0.00952 0.046428,0 0.09107,-0.011309 0.044642,-0.011905 0.076785,-0.036904 0.035119,-0.026785 0.057737,-0.066666 0.022619,-0.040476 0.030357,-0.097022 -0.051785,0.029761 -0.096427,0.045833 -0.044047,0.015476 -0.1101174,0.015476 -0.049999,0 -0.095832,-0.011905 -0.045237,-0.0125 -0.082737,-0.038095 -0.049404,-0.035119 -0.079165,-0.092261 -0.029166,-0.057737 -0.029166,-0.145236 0,-0.1422598 0.098808,-0.2315442 0.099403,-0.08988 0.2601153,-0.08988 0.082737,0 0.1464265,0.022023 0.064285,0.021428 0.1107127,0.066071 0.054166,0.05119 0.081546,0.1303552 0.027381,0.079166 0.027381,0.1928544 z M 5.01886,7.2821295 q 0,-0.072618 -0.014285,-0.1190459 -0.01369,-0.047023 -0.038095,-0.072618 -0.017262,-0.019047 -0.03988,-0.02738 -0.022619,-0.00833 -0.047618,-0.00833 -0.023214,0 -0.044642,0.00833 -0.020833,0.00774 -0.040476,0.02738 -0.018452,0.019047 -0.030357,0.049999 -0.011309,0.030952 -0.011309,0.073809 0,0.041666 0.0125,0.070237 0.0125,0.027976 0.034523,0.044642 0.020833,0.016071 0.048809,0.022619 0.028571,0.00655 0.061904,0.00655 0.026785,0 0.058333,-0.00655 0.031547,-0.00714 0.048809,-0.014285 0,-0.00655 5.952e-4,-0.018452 0.00119,-0.0125 0.00119,-0.036904 z"
         id="path82256"
         style="fill:#63696b;fill-opacity:1;stroke:none" />
    </g>
    <g
       aria-label="4"
       transform="skewY(-30)"
       id="text81460"
       style="font-weight:bold;font-size:1.21154px;-inkscape-font-specification:'sans-serif Bold';stroke:none;stroke-width:0.00403846;stroke-miterlimit:0.5;fill:#63696b;fill-opacity:1">
      <path
         d="M 6.4143235,10.349446 H 6.2942343 v 0.205276 H 6.0771273 V 10.349446 H 5.6506037 V 10.182623 L 6.0629296,9.6715047 H 6.2942343 V 10.188539 H 6.4143235 Z M 6.0771273,10.188539 V 9.870273 l -0.2561508,0.318266 z"
         id="path82262"
         style="fill:#63696b;fill-opacity:1;stroke:none" />
    </g>
    <g
       aria-label="8"
       transform="skewY(-30)"
       id="text81468"
       style="font-weight:bold;font-size:1.21617px;-inkscape-font-specification:'sans-serif Bold';stroke:none;stroke-width:0.00405391;stroke-miterlimit:0.5;fill:#63696b;fill-opacity:1">
      <path
         d="m 7.5916352,7.6028061 q 0,0.117579 -0.1003578,0.1924019 -0.099764,0.074823 -0.2743509,0.074823 -0.097982,0 -0.1680547,-0.02019 -0.070072,-0.02019 -0.1157974,-0.05582 -0.045131,-0.035036 -0.067103,-0.081949 -0.021378,-0.046913 -0.021378,-0.1009516 0,-0.066509 0.038599,-0.1175789 0.039193,-0.051664 0.1348001,-0.090263 v -0.00356 q -0.077198,-0.03563 -0.1134221,-0.089669 -0.036224,-0.054039 -0.036224,-0.1252988 0,-0.1051084 0.097389,-0.1722116 0.097389,-0.067103 0.2535667,-0.067103 0.1638979,0 0.2565358,0.061165 0.093232,0.060571 0.093232,0.1621164 0,0.062946 -0.039193,0.1122344 -0.039193,0.049288 -0.1199542,0.08373 v 0.00356 q 0.092638,0.035036 0.1371754,0.094419 0.044537,0.059383 0.044537,0.1401446 z M 7.3463821,7.194249 q 0,-0.045131 -0.035036,-0.071854 -0.034442,-0.026722 -0.092044,-0.026722 -0.021378,0 -0.043944,0.00534 -0.021972,0.00534 -0.040381,0.01544 -0.017221,0.010095 -0.028504,0.026722 -0.011283,0.016033 -0.011283,0.036818 0,0.035036 0.019596,0.054633 0.02019,0.019596 0.065322,0.039193 0.016627,0.00713 0.045131,0.017815 0.029098,0.010095 0.070072,0.02316 0.027316,-0.032067 0.039193,-0.057602 0.011877,-0.025535 0.011877,-0.062946 z m 0.018409,0.4186523 q 0,-0.042756 -0.021378,-0.064728 -0.021378,-0.021972 -0.087887,-0.050476 -0.019596,-0.00891 -0.057008,-0.021972 -0.037412,-0.013064 -0.062946,-0.022566 -0.025535,0.02316 -0.046319,0.056414 -0.02019,0.032661 -0.02019,0.073635 0,0.061759 0.043944,0.098576 0.044537,0.036224 0.1157974,0.036224 0.019003,0 0.044538,-0.00534 0.025535,-0.00594 0.043944,-0.017815 0.021378,-0.013658 0.034442,-0.032067 0.013064,-0.018409 0.013064,-0.049882 z"
         id="path82259"
         style="fill:#63696b;fill-opacity:1;stroke:none" />
    </g>
  </g>
</svg>
